<svg width="224" height="55" viewBox="0 0 224 55" fill="none" xmlns="http://www.w3.org/2000/svg">
<path d="M23.1383 55C16.4378 53.3958 10.9059 49.7402 6.54236 44.033C2.17886 38.3258 -0.00192691 31.9898 1.27751e-06 25.025V8.25L23.1383 0L46.2766 8.25V25.025C46.2766 31.9917 44.0958 38.3286 39.7342 44.0358C35.3727 49.7429 29.8407 53.3977 23.1383 55ZM23.1383 49.225C28.1516 47.7125 32.2972 44.6875 35.5751 40.15C38.8531 35.6125 40.492 30.5708 40.492 25.025V12.0312L23.1383 5.84375L5.78458 12.0312V25.025C5.78458 30.5708 7.42354 35.6125 10.7015 40.15C13.9794 44.6875 18.125 47.7125 23.1383 49.225Z" fill="#3B82F6"/>
<path d="M76.5593 33.72H85.5193V39H69.7193V10.92H76.5593V33.72ZM92.2218 14.36C91.0218 14.36 90.0351 14.0133 89.2618 13.32C88.5151 12.6 88.1418 11.72 88.1418 10.68C88.1418 9.61333 88.5151 8.73333 89.2618 8.04C90.0351 7.32 91.0218 6.96 92.2218 6.96C93.3951 6.96 94.3551 7.32 95.1018 8.04C95.8751 8.73333 96.2618 9.61333 96.2618 10.68C96.2618 11.72 95.8751 12.6 95.1018 13.32C94.3551 14.0133 93.3951 14.36 92.2218 14.36ZM95.6218 16.68V39H88.7818V16.68H95.6218ZM111.779 22.36H108.099V39H101.259V22.36H98.7786V16.68H101.259V16.04C101.259 13.2933 102.045 11.2133 103.619 9.8C105.192 8.36 107.499 7.64 110.539 7.64C111.045 7.64 111.419 7.65333 111.659 7.68V13.48C110.352 13.4 109.432 13.5867 108.899 14.04C108.365 14.4933 108.099 15.3067 108.099 16.48V16.68H111.779V22.36ZM136.033 27.48C136.033 28.12 135.993 28.7867 135.913 29.48H120.433C120.539 30.8667 120.979 31.9333 121.753 32.68C122.553 33.4 123.526 33.76 124.673 33.76C126.379 33.76 127.566 33.04 128.233 31.6H135.513C135.139 33.0667 134.459 34.3867 133.473 35.56C132.513 36.7333 131.299 37.6533 129.833 38.32C128.366 38.9867 126.726 39.32 124.913 39.32C122.726 39.32 120.779 38.8533 119.073 37.92C117.366 36.9867 116.033 35.6533 115.073 33.92C114.113 32.1867 113.633 30.16 113.633 27.84C113.633 25.52 114.099 23.4933 115.033 21.76C115.993 20.0267 117.326 18.6933 119.033 17.76C120.739 16.8267 122.699 16.36 124.913 16.36C127.073 16.36 128.993 16.8133 130.673 17.72C132.353 18.6267 133.659 19.92 134.593 21.6C135.553 23.28 136.033 25.24 136.033 27.48ZM129.033 25.68C129.033 24.5067 128.633 23.5733 127.833 22.88C127.033 22.1867 126.033 21.84 124.833 21.84C123.686 21.84 122.713 22.1733 121.913 22.84C121.139 23.5067 120.659 24.4533 120.473 25.68H129.033Z" fill="#3B82F6"/>
<path d="M146.481 9.4V39H139.641V9.4H146.481ZM154.878 14.36C153.678 14.36 152.691 14.0133 151.918 13.32C151.171 12.6 150.798 11.72 150.798 10.68C150.798 9.61333 151.171 8.73333 151.918 8.04C152.691 7.32 153.678 6.96 154.878 6.96C156.051 6.96 157.011 7.32 157.758 8.04C158.531 8.73333 158.918 9.61333 158.918 10.68C158.918 11.72 158.531 12.6 157.758 13.32C157.011 14.0133 156.051 14.36 154.878 14.36ZM158.278 16.68V39H151.438V16.68H158.278ZM176.835 16.44C179.448 16.44 181.528 17.2933 183.075 19C184.648 20.68 185.435 23 185.435 25.96V39H178.635V26.88C178.635 25.3867 178.248 24.2267 177.475 23.4C176.702 22.5733 175.662 22.16 174.355 22.16C173.048 22.16 172.008 22.5733 171.235 23.4C170.462 24.2267 170.075 25.3867 170.075 26.88V39H163.235V16.68H170.075V19.64C170.768 18.6533 171.702 17.88 172.875 17.32C174.048 16.7333 175.368 16.44 176.835 16.44ZM211.228 27.48C211.228 28.12 211.188 28.7867 211.108 29.48H195.628C195.735 30.8667 196.175 31.9333 196.948 32.68C197.748 33.4 198.721 33.76 199.868 33.76C201.575 33.76 202.761 33.04 203.428 31.6H210.708C210.335 33.0667 209.655 34.3867 208.668 35.56C207.708 36.7333 206.495 37.6533 205.028 38.32C203.561 38.9867 201.921 39.32 200.108 39.32C197.921 39.32 195.975 38.8533 194.268 37.92C192.561 36.9867 191.228 35.6533 190.268 33.92C189.308 32.1867 188.828 30.16 188.828 27.84C188.828 25.52 189.295 23.4933 190.228 21.76C191.188 20.0267 192.521 18.6933 194.228 17.76C195.935 16.8267 197.895 16.36 200.108 16.36C202.268 16.36 204.188 16.8133 205.868 17.72C207.548 18.6267 208.855 19.92 209.788 21.6C210.748 23.28 211.228 25.24 211.228 27.48ZM204.228 25.68C204.228 24.5067 203.828 23.5733 203.028 22.88C202.228 22.1867 201.228 21.84 200.028 21.84C198.881 21.84 197.908 22.1733 197.108 22.84C196.335 23.5067 195.855 24.4533 195.668 25.68H204.228Z" fill="white"/>
</svg>
